<mxfile host="app.diagrams.net" modified="2022-11-10T12:48:28.373Z" agent="5.0 (Windows NT 10.0; Win64; x64) AppleWebKit/537.36 (KHTML, like Gecko) Chrome/107.0.0.0 Safari/537.36" etag="Tbqj0oHl_0QVVp-gjGzo" version="20.5.3" type="github">
  <diagram name="Page-1" id="c7558073-3199-34d8-9f00-42111426c3f3">
    <mxGraphModel dx="1422" dy="762" grid="1" gridSize="10" guides="1" tooltips="1" connect="1" arrows="1" fold="1" page="1" pageScale="1" pageWidth="826" pageHeight="1169" background="none" math="0" shadow="0">
      <root>
        <mxCell id="0" />
        <mxCell id="1" parent="0" />
        <mxCell id="2" value="&lt;br&gt;&lt;br&gt;&lt;br&gt;VM-Package-Test" style="verticalAlign=middle;align=center;overflow=fill;fontSize=12;fontFamily=Helvetica;html=1;rounded=1;fontStyle=1;strokeWidth=3;fillColor=#E6FFCC" parent="1" vertex="1">
          <mxGeometry x="20" y="210" width="110" height="90" as="geometry" />
        </mxCell>
        <mxCell id="4" value="Metric Disk" style="whiteSpace=wrap;align=center;verticalAlign=middle;fontStyle=1;strokeWidth=3;fillColor=#FFFFCC" parent="1" vertex="1">
          <mxGeometry x="200" y="320" width="90" height="60" as="geometry" />
        </mxCell>
        <mxCell id="Pa6BjLxCe4-dV-NY0uXN-96" value="" style="edgeStyle=none;noEdgeStyle=1;strokeColor=#990000;strokeWidth=2;exitX=1;exitY=0.25;exitDx=0;exitDy=0;entryX=0;entryY=0.5;entryDx=0;entryDy=0;" edge="1" parent="1" source="2" target="Pa6BjLxCe4-dV-NY0uXN-98">
          <mxGeometry width="100" height="100" relative="1" as="geometry">
            <mxPoint x="750" y="140.4175" as="sourcePoint" />
            <mxPoint x="610" y="50.00083333333336" as="targetPoint" />
          </mxGeometry>
        </mxCell>
        <mxCell id="Pa6BjLxCe4-dV-NY0uXN-97" value="Metric Memory" style="whiteSpace=wrap;align=center;verticalAlign=middle;fontStyle=1;strokeWidth=3;fillColor=#FFFFCC" vertex="1" parent="1">
          <mxGeometry x="200" y="240" width="90" height="60" as="geometry" />
        </mxCell>
        <mxCell id="Pa6BjLxCe4-dV-NY0uXN-98" value="Metric CPU" style="whiteSpace=wrap;align=center;verticalAlign=middle;fontStyle=1;strokeWidth=3;fillColor=#FFFFCC" vertex="1" parent="1">
          <mxGeometry x="200" y="160" width="90" height="60" as="geometry" />
        </mxCell>
        <mxCell id="Pa6BjLxCe4-dV-NY0uXN-100" value="" style="edgeStyle=none;noEdgeStyle=1;strokeColor=#990000;strokeWidth=2;exitX=1;exitY=0.25;exitDx=0;exitDy=0;entryX=0;entryY=0.5;entryDx=0;entryDy=0;" edge="1" parent="1" target="Pa6BjLxCe4-dV-NY0uXN-97">
          <mxGeometry width="100" height="100" relative="1" as="geometry">
            <mxPoint x="130" y="262.5" as="sourcePoint" />
            <mxPoint x="200" y="220" as="targetPoint" />
            <Array as="points" />
          </mxGeometry>
        </mxCell>
        <mxCell id="Pa6BjLxCe4-dV-NY0uXN-102" value="" style="edgeStyle=none;noEdgeStyle=1;strokeColor=#990000;strokeWidth=2;exitX=1;exitY=0.75;exitDx=0;exitDy=0;entryX=0;entryY=0.5;entryDx=0;entryDy=0;" edge="1" parent="1" source="2" target="4">
          <mxGeometry width="100" height="100" relative="1" as="geometry">
            <mxPoint x="130" y="352.5" as="sourcePoint" />
            <mxPoint x="200" y="310" as="targetPoint" />
          </mxGeometry>
        </mxCell>
        <mxCell id="Pa6BjLxCe4-dV-NY0uXN-103" value="SMN-TEST-CPU" style="ellipse;whiteSpace=wrap;html=1;fillColor=#f8cecc;strokeColor=#b85450;" vertex="1" parent="1">
          <mxGeometry x="430" y="120" width="120" height="80" as="geometry" />
        </mxCell>
        <mxCell id="Pa6BjLxCe4-dV-NY0uXN-104" value="SMN-TEST-MEM" style="ellipse;whiteSpace=wrap;html=1;fillColor=#f8cecc;strokeColor=#b85450;" vertex="1" parent="1">
          <mxGeometry x="430" y="230" width="120" height="80" as="geometry" />
        </mxCell>
        <mxCell id="Pa6BjLxCe4-dV-NY0uXN-105" value="SMN-TEST-DISK" style="ellipse;whiteSpace=wrap;html=1;fillColor=#f8cecc;strokeColor=#b85450;" vertex="1" parent="1">
          <mxGeometry x="430" y="350" width="120" height="80" as="geometry" />
        </mxCell>
        <mxCell id="Pa6BjLxCe4-dV-NY0uXN-106" value="" style="edgeStyle=none;noEdgeStyle=1;strokeColor=#990000;strokeWidth=2;exitX=1;exitY=0.75;exitDx=0;exitDy=0;entryX=0;entryY=0.5;entryDx=0;entryDy=0;" edge="1" parent="1" target="Pa6BjLxCe4-dV-NY0uXN-105">
          <mxGeometry width="100" height="100" relative="1" as="geometry">
            <mxPoint x="290" y="350" as="sourcePoint" />
            <mxPoint x="360" y="422.5" as="targetPoint" />
          </mxGeometry>
        </mxCell>
        <mxCell id="Pa6BjLxCe4-dV-NY0uXN-107" value="" style="edgeStyle=none;noEdgeStyle=1;strokeColor=#990000;strokeWidth=2;exitX=1;exitY=0.75;exitDx=0;exitDy=0;entryX=0;entryY=0.5;entryDx=0;entryDy=0;" edge="1" parent="1" target="Pa6BjLxCe4-dV-NY0uXN-104">
          <mxGeometry width="100" height="100" relative="1" as="geometry">
            <mxPoint x="290" y="270" as="sourcePoint" />
            <mxPoint x="360" y="342.5" as="targetPoint" />
          </mxGeometry>
        </mxCell>
        <mxCell id="Pa6BjLxCe4-dV-NY0uXN-108" value="" style="edgeStyle=none;noEdgeStyle=1;strokeColor=#990000;strokeWidth=2;exitX=1;exitY=0.75;exitDx=0;exitDy=0;entryX=0;entryY=0.5;entryDx=0;entryDy=0;" edge="1" parent="1" target="Pa6BjLxCe4-dV-NY0uXN-103">
          <mxGeometry width="100" height="100" relative="1" as="geometry">
            <mxPoint x="290" y="190" as="sourcePoint" />
            <mxPoint x="360" y="262.5" as="targetPoint" />
          </mxGeometry>
        </mxCell>
        <mxCell id="Pa6BjLxCe4-dV-NY0uXN-109" value="WebService" style="shape=switch;whiteSpace=wrap;html=1;fillColor=#d5e8d4;strokeColor=#82b366;" vertex="1" parent="1">
          <mxGeometry x="630" y="200" width="150" height="140" as="geometry" />
        </mxCell>
        <mxCell id="Pa6BjLxCe4-dV-NY0uXN-110" value="" style="edgeStyle=none;noEdgeStyle=1;strokeColor=#990000;strokeWidth=2;exitX=1;exitY=0.75;exitDx=0;exitDy=0;entryX=0.267;entryY=0.457;entryDx=0;entryDy=0;entryPerimeter=0;" edge="1" parent="1" target="Pa6BjLxCe4-dV-NY0uXN-109">
          <mxGeometry width="100" height="100" relative="1" as="geometry">
            <mxPoint x="550" y="160" as="sourcePoint" />
            <mxPoint x="690" y="200" as="targetPoint" />
          </mxGeometry>
        </mxCell>
        <mxCell id="Pa6BjLxCe4-dV-NY0uXN-111" value="" style="edgeStyle=none;noEdgeStyle=1;strokeColor=#990000;strokeWidth=2;exitX=1;exitY=0.75;exitDx=0;exitDy=0;entryX=0.24;entryY=0.457;entryDx=0;entryDy=0;entryPerimeter=0;" edge="1" parent="1" target="Pa6BjLxCe4-dV-NY0uXN-109">
          <mxGeometry width="100" height="100" relative="1" as="geometry">
            <mxPoint x="550" y="270" as="sourcePoint" />
            <mxPoint x="690" y="310" as="targetPoint" />
          </mxGeometry>
        </mxCell>
        <mxCell id="Pa6BjLxCe4-dV-NY0uXN-112" value="" style="edgeStyle=none;noEdgeStyle=1;strokeColor=#990000;strokeWidth=2;exitX=1;exitY=0.75;exitDx=0;exitDy=0;entryX=0.25;entryY=0.5;entryDx=0;entryDy=0;entryPerimeter=0;" edge="1" parent="1" target="Pa6BjLxCe4-dV-NY0uXN-109">
          <mxGeometry width="100" height="100" relative="1" as="geometry">
            <mxPoint x="550" y="390" as="sourcePoint" />
            <mxPoint x="690" y="430" as="targetPoint" />
          </mxGeometry>
        </mxCell>
      </root>
    </mxGraphModel>
  </diagram>
</mxfile>
